<svg width="79" height="80" viewBox="0 0 79 80" fill="none" xmlns="http://www.w3.org/2000/svg">
<path d="M29.2686 1C41.804 1 52.0129 11.2083 52.0283 23.7451V43.8721L53.918 44.3291L58.0781 36.2334L58.2432 35.9111L58.165 35.5576C57.7947 33.9027 57.1384 30.4579 57.1963 27.1572C57.2253 25.5057 57.4328 23.9517 57.9043 22.6953C58.372 21.4491 59.0688 20.5671 60.0469 20.1035L60.0479 20.1045C61.3489 19.4892 63.3346 19.5254 65.6396 20.1182C67.9011 20.6997 70.281 21.7677 72.2324 22.9629V22.9639C73.3423 23.6469 74.7982 24.6629 75.9766 25.8936C77.1714 27.1414 77.9594 28.4822 77.9971 29.8203V30.0225C77.9714 31.0297 77.5368 32.0423 76.7529 33.0557C75.9156 34.1381 74.7275 35.1579 73.3945 36.0791C70.7293 37.921 67.6512 39.2561 66.1475 39.8545L65.8174 39.9863L65.6436 40.2959L55.8203 57.8643L55.5508 58.3447L55.8145 58.8291C57.8627 62.599 57.6659 67.3452 57.4062 72.6523C57.3104 74.4904 57.2129 76.435 57.2129 78.4004C57.2127 78.7279 56.9399 79 56.6123 79H1.95703C1.62945 79 1.35666 78.7279 1.35645 78.4004C1.35645 76.9262 1.30225 75.4634 1.23438 74.0488L1.16309 72.6523C0.804742 65.3223 0.557302 59.051 6.12402 55.0518L6.54102 54.7529V23.7441C6.54102 11.2076 16.7338 1.00007 29.2686 1ZM15.0996 52.7842C14.9708 52.8128 14.8471 52.8545 14.79 52.873C14.7158 52.8971 14.6895 52.9039 14.6729 52.9072L14.6611 52.9102C8.35135 54.2477 4.99099 56.6206 3.40918 60.1621C2.63926 61.8859 2.32822 63.81 2.23047 65.8711C2.15735 67.4132 2.20257 69.0719 2.28027 70.8184L2.36621 72.5938C2.43017 73.9688 2.49371 75.3808 2.52539 76.8379L2.5459 77.8164H27.1943L25.248 76.0713C18.6761 70.1813 16.9856 63.443 16.9297 63.208L16.9277 63.2031L16.9131 63.1123C16.8954 62.8997 16.9952 62.6901 17.1826 62.5703L17.1885 62.5674L19.6846 60.9512L20.9365 60.1406L19.7109 59.29L16.0049 56.7188H16.0059C15.7985 56.5724 15.7015 56.3076 15.7578 56.0723L16.2852 54.0078L16.6885 52.4307L15.0996 52.7842ZM42.2676 53.9922L42.793 56.0439V56.0449C42.8551 56.2998 42.758 56.5539 42.5488 56.7021L38.8428 59.2744L37.6172 60.125L38.8691 60.9355L41.3652 62.5518L41.3701 62.5547C41.5843 62.6915 41.6841 62.9454 41.625 63.1875L41.623 63.1943L41.6211 63.2021C41.5666 63.4417 39.8788 70.18 33.3066 76.0547L31.3535 77.7998H55.9912L56.0127 76.8223C56.0443 75.3836 56.1229 73.9813 56.1875 72.5938C56.3069 70.1907 56.4207 67.9274 56.3232 65.8711C56.2255 63.81 55.9135 61.886 55.1436 60.1621C53.5671 56.6328 50.225 54.2638 43.957 52.9238C43.9202 52.9121 43.8886 52.9009 43.8008 52.8691C43.7157 52.8384 43.5871 52.7946 43.4326 52.7637L41.874 52.4512L42.2676 53.9922ZM17.9639 52.2168L17.1797 55.2891L17.0078 55.9629L17.5801 56.3584L22.3398 59.6494H22.3408C22.4932 59.7567 22.599 59.9523 22.6035 60.1621C22.5922 60.3636 22.4866 60.5445 22.3281 60.6465L22.3242 60.6494L18.8516 62.9053L18.1885 63.3369L18.4551 64.0811C19.3428 66.5601 22.0809 72.6243 28.6934 77.2812L29.2686 77.6875L29.8447 77.2812C36.457 72.6244 39.1943 66.56 40.082 64.0811L40.3486 63.3369L39.6855 62.9053L36.2188 60.6523C36.0693 60.5506 35.9668 60.3847 35.9395 60.2178L35.9326 60.1455C35.9282 59.9853 35.9969 59.8216 36.1338 59.6992L36.1963 59.6494L40.957 56.3584L41.5283 55.9639L41.3584 55.291L40.6221 52.3789L40.2891 51.0596L39.1289 51.7715C36.1374 53.6089 32.7836 54.5195 29.4131 54.5195C25.9686 54.5195 22.5064 53.549 19.4688 51.6201L18.3047 50.8809L17.9639 52.2168ZM58.6357 37.7021L52.1074 50.3906L51.9971 50.6055V54.7432L52.4219 55.042C52.9585 55.4191 53.4266 55.828 53.8574 56.2588L54.793 57.1943L55.4375 56.0391L64.0459 40.6152L64.54 39.7295L63.6475 39.248L59.999 37.2803L59.1016 36.7959L58.6357 37.7021ZM29.2686 2.2002C17.4038 2.20027 7.74023 11.8644 7.74023 23.7441V53.9863L9.1377 53.3818C10.6285 52.7363 12.3406 52.1645 14.4023 51.7305L14.4092 51.7295C18.2204 50.9024 21.0551 47.7731 21.5566 43.9043L21.6211 43.4014L21.2549 43.0518C17.7661 39.7284 15.4209 34.2749 15.4209 28.0479V27.9209C15.4378 27.6052 15.6909 27.3571 15.9463 27.3311L15.9502 27.3301C24.2228 26.4539 31.3464 20.7191 35.0967 12.1611L35.0996 12.1543C35.1667 11.9977 35.3192 11.8622 35.5029 11.8115C35.6594 11.7685 35.8428 11.7952 36.0078 11.9121C40.32 15.1411 43.1005 21.2866 43.1006 28.0479C43.1006 34.2767 40.7706 39.7296 37.2832 43.0518L36.915 43.4023L36.9814 43.9053C37.4825 47.7346 40.3116 50.9193 44.1328 51.7305H44.1348C46.1966 52.1645 47.9086 52.7363 49.3994 53.3818L50.7969 53.9863V23.7441C50.7969 11.8649 41.1499 2.2002 29.2686 2.2002ZM34.6934 45.0352C33.0069 45.9967 31.1761 46.5195 29.2686 46.5195C27.3615 46.5195 25.5455 45.997 23.873 45.0498L22.7715 44.4258L22.4199 45.6426C22.0102 47.0618 21.3242 48.3448 20.4072 49.4365L19.6436 50.3447L20.668 50.9434C26.0163 54.0675 32.5883 54.1007 37.9688 51.0625L39.0273 50.4648L38.2363 49.541C37.2804 48.4258 36.5761 47.083 36.1484 45.623L35.793 44.4082L34.6934 45.0352ZM35.293 14.5312C31.386 22.0661 24.8966 27.0576 17.4844 28.3262L16.6064 28.4766L16.6543 29.3652C16.8878 33.7265 18.3186 37.6786 20.5381 40.5635C22.7575 43.4481 25.8181 45.3203 29.2686 45.3203C32.8909 45.3203 36.0773 43.2638 38.3184 40.1318C40.5608 36.9979 41.917 32.7208 41.917 28.0479C41.917 22.6572 40.0738 17.5733 36.8994 14.2959L35.9326 13.2988L35.293 14.5312ZM62.8135 20.8457C62.0097 20.807 61.2072 20.8835 60.5537 21.1924H60.5527C59.6194 21.6345 59.1317 22.6137 58.8594 23.5498C58.5737 24.5318 58.4457 25.7377 58.4209 27.0107C58.3711 29.5663 58.7346 32.6015 59.2832 35.1396L59.3809 35.5898L59.7861 35.8076L61.002 36.4639L61.8828 36.9395L62.3574 36.0576L64.4053 32.25L64.4082 32.2451C64.562 31.9553 64.9135 31.8427 65.2158 32.0029C65.5057 32.1568 65.6175 32.5091 65.457 32.8115L63.4121 36.6143L62.9365 37.498L63.8223 37.9707L65.0225 38.6104L65.4346 38.8311L65.8691 38.6543C68.1304 37.7367 70.7922 36.3753 72.8984 34.9014C73.9491 34.1661 74.8986 33.3771 75.5918 32.5742C76.2608 31.7994 76.8214 30.8607 76.7959 29.8467V29.8418C76.769 28.9442 76.1942 27.9558 75.3799 27.0342C74.5267 26.0686 73.2731 25.0203 71.6016 23.9971H71.6025C69.6213 22.7734 67.4489 21.838 65.5234 21.3135C64.5609 21.0513 63.6369 20.8854 62.8135 20.8457Z" fill="white" stroke="#BA7894" stroke-width="2"/>
</svg>
