<svg width="85" height="96" viewBox="0 0 85 96" fill="none" xmlns="http://www.w3.org/2000/svg">
<path d="M25.6782 16.2026L39.6313 25.9646L22.0419 51.1056L8.08878 41.3435L25.6782 16.2026Z" fill="white"/>
<path d="M47.2725 44.4202L60.1429 36.9893L72.4614 58.3249L59.5909 65.7558L47.2725 44.4202Z" fill="white"/>
<path d="M57.9689 23.2982C58.5884 23.2895 59.2009 23.1572 59.7692 22.9067C61.5424 22.1253 62.8074 20.5091 63.1403 18.6002C63.5346 16.3389 61.6929 14.3119 59.4043 14.4882C58.6016 14.5499 57.8654 14.8823 57.2973 15.4031L51.8101 18.8879L51.4456 23.939L57.9689 23.2982Z" fill="white"/>
<path d="M59.4043 14.4881C58.6016 14.5499 57.8654 14.8822 57.2973 15.4031L51.8101 18.8879L51.4456 23.9389L52.6397 23.8216L55.5583 21.2738C55.9176 21.0518 56.255 20.8019 56.5638 20.5291C58.3329 18.9666 59.3712 16.787 59.509 14.4815C59.4728 14.4832 59.4406 14.4853 59.4043 14.4881Z" fill="white"/>
<path d="M54.3348 19.5925C54.6393 19.4159 54.9274 19.211 55.1929 18.9766C56.8734 17.4922 57.7006 15.266 57.3973 13.0443C57.0378 10.4126 54.2953 8.82455 51.8341 9.82252C51.4285 9.9869 51.0613 10.2134 50.7385 10.4859L45.4497 14.5569L43.2622 20.4856L51.3707 22.1803L54.3348 19.5925Z" fill="white"/>
<path d="M53.0886 9.53104C52.6693 9.55947 52.2499 9.65381 51.8338 9.82271C51.4282 9.98709 51.061 10.2136 50.7383 10.4861L45.4494 14.5571L43.262 20.4858L44.5102 20.7466L47.7933 19.1027L48.4381 18.7975C49.4935 18.2978 50.4389 17.5532 51.1718 16.6443C52.7986 14.6265 53.4709 12.0474 53.0886 9.53104Z" fill="white"/>
<path d="M46.7209 16.9017L47.3903 16.5848C48.1188 16.2399 48.7599 15.7349 49.2659 15.1075C50.6734 13.3621 51.1153 11.0286 50.4433 8.88932C49.6474 6.35541 46.6772 5.2501 44.4182 6.64708C44.2368 6.7593 44.0668 6.88452 43.9085 7.02047L38.5203 11.118L37.4307 19.5923L42.7548 18.8875L46.7209 16.9017Z" fill="white"/>
<path d="M46.3711 6.04056C45.7051 6.06993 45.037 6.26463 44.4184 6.64725C44.2371 6.75947 44.0671 6.88469 43.9087 7.02064L38.5206 11.1182L37.561 18.5806L40.0569 18.4612L41.0596 18.6847L43.7861 16.1734C44.7747 15.263 45.5584 14.1211 46.0523 12.8714C46.9273 10.658 47.0145 8.25945 46.3711 6.04056Z" fill="white"/>
<path d="M40.2849 15.8111C40.2857 15.8113 40.2866 15.8115 40.2874 15.8117L42.0001 14.2341C42.7025 13.5871 43.2497 12.7899 43.6007 11.9019C44.5774 9.43162 44.2544 6.63654 42.7402 4.45418C40.9464 1.86886 37.1976 1.66588 35.1352 4.04238C35.0401 4.15196 34.9524 4.26607 34.8686 4.38206L30.7046 9.09608L31.8378 16.215L40.2849 15.8111Z" fill="white"/>
<path d="M65.8009 36.6626L60.4418 32.0853L50.7383 23.2982L47.2742 27.1818L59.1915 39.0029L61.5043 41.766L64.5911 42.9018L67.9556 40.6021L65.8009 36.6626Z" fill="white"/>
<path d="M30.4968 10.2758L25.7466 13.4945L17.496 20.4856L15.9753 24.0551L17.496 28.0173L21.1294 26.7789L25.1066 22.0272L33.2313 15.0122L33.6461 15.7303L30.4968 10.2758Z" fill="white"/>
<path d="M38.3558 10.7909C38.0694 10.1451 37.9535 9.43179 38.0199 8.72812L38.0947 7.93746C38.2672 6.11738 37.8407 4.29957 36.9165 2.75082C36.255 3.02593 35.6453 3.45449 35.1352 4.04235C35.0401 4.15194 34.9524 4.26605 34.8686 4.38204L30.7046 9.09605L31.8378 16.215L40.2848 15.8109C40.2855 15.8111 40.2865 15.8113 40.2872 15.8115C40.2872 15.8115 40.7917 15.437 41.018 15.1385C41.0182 15.1387 38.9239 12.0725 38.3558 10.7909Z" fill="white"/>
<path d="M56.4164 79.4148C56.2735 80.2727 56.107 81.1276 55.911 81.9771L55.203 85.0454C53.9139 90.6311 48.9402 94.5878 43.2077 94.5878C36.1056 94.5878 30.4764 88.5945 30.9214 81.506L31.6504 69.8877C31.8602 66.547 31.7307 63.2019 31.275 59.9012L27.6811 45.1489L25.1373 33.3143C24.7733 28.9798 24.8691 24.6055 25.4331 20.2647L25.8208 17.2802C25.9842 16.0216 25.9594 14.7455 25.7466 13.4943C25.5496 12.3353 25.1936 11.2091 24.6885 10.1475L24.4229 9.58921C22.6175 5.79371 25.3852 1.41223 29.5884 1.41223C32.9604 1.41223 35.6007 4.31426 35.2829 7.67141L35.2079 8.46207C35.0955 9.64928 35.2904 10.8455 35.7738 11.9358C36.7267 14.0856 38.7018 15.6079 41.0233 15.9826L48.3658 17.1674C56.4032 18.4642 61.7561 26.1767 60.1597 34.1601L57.2835 48.5443L56.4164 79.4148Z" fill="white"/>
<path d="M56.4774 77.2458L57.2172 50.9053C55.8314 49.575 53.9585 48.7958 51.9982 48.7958C50.5041 48.7958 49.0572 49.237 47.8135 50.0717C44.815 52.0843 43.6711 55.9541 45.0933 59.2732L48.983 68.3507C50.5547 72.0185 53.1683 75.1015 56.4774 77.2458Z" fill="white"/>
<path d="M81.9008 74.4195L78.069 67.0507C77.8494 66.6285 77.7349 66.1596 77.7349 65.6838V49.2848C77.7349 47.7434 77.0601 46.2794 75.8879 45.2783L65.8005 36.6625L61.5039 41.766L64.8456 45.7584C65.2028 46.1853 65.3569 46.7464 65.2674 47.2959L63.4502 58.4558C63.3022 59.3647 62.5172 60.0323 61.5962 60.0323H59.6709C59.0111 60.0323 58.3997 59.6862 58.0602 59.1203L55.218 54.3832C54.1138 52.5429 51.6938 52.0027 49.912 53.1986C48.4145 54.2037 47.8445 56.1323 48.5547 57.7898L52.4442 66.8673C54.018 70.54 56.8922 73.5025 60.5156 75.1866L62.4328 76.0778L66.8346 82.0284C67.6145 83.0826 69.0241 83.4506 70.2198 82.9117L80.5733 78.2453C82.0326 77.5877 82.6391 75.8392 81.9008 74.4195Z" fill="white"/>
<path d="M49.3075 92.8468C42.2052 92.8468 36.5762 86.8535 37.0212 79.7651L37.7502 68.1468C37.96 64.806 37.8305 61.4609 37.3748 58.1602L35.9279 52.221C35.7411 51.4546 35.8082 50.6487 36.1188 49.9238C37.1793 47.4495 39.6342 41.7225 39.6342 41.7225C41.0249 38.4766 39.9062 34.6924 36.9741 32.7245L36.7146 32.5503C35.4984 31.7341 34.0834 31.3027 32.6224 31.3027H32.6082C31.8195 31.3034 31.1649 30.6883 31.1205 29.9006C30.9062 26.1153 31.0416 22.307 31.5331 18.5239L31.9208 15.5394C32.0842 14.2808 32.0593 13.0047 31.8466 11.7535C31.6496 10.5945 31.2935 9.46834 30.7885 8.40672L30.5228 7.84842C29.4887 5.67435 29.9598 3.30896 31.337 1.68396C30.7631 1.50037 30.1459 1.40396 29.5062 1.413C25.3349 1.47175 22.6791 5.92346 24.471 9.69072L24.6885 10.1479C25.1935 11.2095 25.5495 12.3357 25.7465 13.4947C25.9591 14.7459 25.9841 16.022 25.8207 17.2806L25.433 20.2651C24.869 24.6059 24.7732 28.9802 25.1372 33.3146L27.6811 45.1493L31.2749 59.9016C31.7308 63.2023 31.8601 66.5474 31.6504 69.8881L30.9213 81.5064C30.4763 88.5947 36.1055 94.588 43.2077 94.588C45.4964 94.588 47.6692 93.9544 49.5297 92.841C49.4574 92.8421 49.38 92.8468 49.3075 92.8468Z" fill="white"/>
<path d="M34.8754 35.8516L34.6157 35.6772C32.9129 34.5342 30.6001 35.0505 29.5449 36.8092L26.5641 41.7771C26.2547 42.2928 25.6974 42.6082 25.096 42.6082H22.9351C22.0956 42.6082 21.3801 41.9996 21.2453 41.1713L19.4139 29.9245C19.319 29.3418 19.4823 28.7466 19.8613 28.2937L21.1291 26.779L17.4957 20.4858L9.7733 27.0293C7.97487 28.5532 6.93792 30.7911 6.93792 33.1482V48.26C6.93792 48.7358 6.82325 49.2046 6.60388 49.6268L2.72534 57.0856C2.01245 58.4566 2.59805 60.1449 4.00689 60.7798L14.5235 65.5196C15.6779 66.0399 17.0389 65.6848 17.7921 64.6668L22.2399 58.6541L24.2149 57.7362C27.8012 56.0694 30.646 53.1372 32.2036 49.5022L36.1725 40.2396C36.8513 38.6551 36.3066 36.8121 34.8754 35.8516Z" fill="white"/>
<path d="M43.2075 96C39.3785 96 35.8261 94.4629 33.2046 91.6718C30.5834 88.8809 29.2717 85.239 29.5116 81.4175L29.6842 78.6663C29.733 77.8879 30.4024 77.2972 31.1821 77.3452C31.9606 77.394 32.552 78.0647 32.5032 78.8431L32.3306 81.5943C32.14 84.6293 33.1817 87.5216 35.2635 89.738C37.3453 91.9546 40.1665 93.1754 43.2073 93.1754C48.3119 93.1754 52.6787 89.7015 53.8265 84.7276L54.5347 81.6593C54.7161 80.8732 54.8804 80.0398 55.0232 79.1826C55.1514 78.4132 55.8767 77.8928 56.6484 78.0216C57.4177 78.1496 57.9374 78.8772 57.8094 79.6466C57.6571 80.561 57.4814 81.4518 57.2869 82.2944L56.5787 85.3629C55.1335 91.6261 49.6351 96 43.2075 96Z" fill="#BA7894"/>
<path d="M31.4729 74.1489C31.4431 74.1489 31.4132 74.148 31.383 74.1461C30.6046 74.0971 30.0132 73.4266 30.062 72.6482L30.2408 69.7996C30.4431 66.5778 30.3201 63.3126 29.8757 60.0948C29.7692 59.3222 30.3088 58.6093 31.0816 58.5025C31.8544 58.3962 32.5671 58.9358 32.6738 59.7084C33.144 63.1124 33.2739 66.5671 33.0598 69.9764L32.8809 72.825C32.8339 73.5733 32.2123 74.1489 31.4729 74.1489Z" fill="#BA7894"/>
<path d="M83.2615 78.4468C82.7514 78.4468 82.259 78.1696 82.0074 77.6857L76.8161 67.702C76.4934 67.0816 76.3228 66.3835 76.3228 65.6836V60.5782C76.3228 59.7982 76.9549 59.1659 77.735 59.1659C78.5151 59.1659 79.1472 59.7982 79.1472 60.5782V65.6836C79.1472 65.9316 79.2077 66.1789 79.3219 66.3988L84.5135 76.3827C84.8733 77.0747 84.6039 77.9273 83.9121 78.2871C83.7038 78.3956 83.4811 78.4468 83.2615 78.4468Z" fill="#BA7894"/>
<path d="M16.5007 67.8234C16.2088 67.8234 15.9145 67.7332 15.6618 67.5465C15.0348 67.0827 14.9024 66.1982 15.3664 65.5712L21.1046 57.814C21.245 57.6241 21.4307 57.4728 21.6448 57.3731L23.6198 56.4552C26.0182 55.3405 28.0727 53.592 29.561 51.3989C29.9991 50.7534 30.8774 50.5854 31.5225 51.0232C32.1679 51.4612 32.3359 52.3394 31.8979 52.9847C30.1227 55.6007 27.6718 57.6863 24.81 59.0164L23.1613 59.7828L17.6371 67.2508C17.3601 67.6254 16.9332 67.8234 16.5007 67.8234Z" fill="#BA7894"/>
<path d="M76.8051 44.2044L61.853 31.4337C61.8741 28.9431 61.3032 26.5007 60.174 24.2668C60.2289 24.2444 60.2843 24.2229 60.3389 24.199C62.5491 23.2247 64.1165 21.2224 64.5315 18.8427C64.7948 17.3324 64.3547 15.8151 63.3236 14.6804C62.2925 13.5459 60.8251 12.9633 59.2957 13.08C59.1379 13.0923 58.9817 13.1143 58.8263 13.1416C58.8167 13.0456 58.8092 12.9496 58.796 12.8533C58.5653 11.1639 57.5868 9.70482 56.1113 8.85033C54.7745 8.07606 53.2104 7.90471 51.7526 8.35587C51.2221 6.78246 50.0332 5.55175 48.472 4.97066C47.2212 4.505 45.8792 4.51235 44.6598 4.96614C44.4434 4.51197 44.1928 4.07042 43.9006 3.64919C42.7953 2.0562 41.0509 1.08233 39.1148 0.977449C37.5559 0.892904 36.0595 1.38323 34.8721 2.34204C34.8693 2.33884 34.8667 2.33564 34.8638 2.33243C33.5152 0.850161 31.5924 0 29.5883 0C27.1271 0 24.8728 1.24238 23.5585 3.32325C22.244 5.40412 22.0905 7.97343 23.1476 10.1959L23.4133 10.7542C23.7492 11.4607 24.0111 12.1992 24.1951 12.958L8.86058 25.9516C6.74149 27.7474 5.52603 30.3704 5.52603 33.148V48.2596C5.52603 48.5076 5.46559 48.7548 5.3511 48.9749L0.159568 58.9586C-0.200267 59.6506 0.0689974 60.5032 0.760989 60.863C0.969057 60.9713 1.19181 61.0225 1.41137 61.0225C1.92146 61.0225 2.41386 60.7453 2.66561 60.2614L7.85696 50.2777C8.1797 49.6571 8.35049 48.9591 8.35049 48.2594V33.1478C8.35049 31.2019 9.20196 29.3643 10.6867 28.1063L24.4866 16.4131C24.471 16.6419 24.4501 16.8703 24.4205 17.0983L24.0326 20.083C23.9808 20.4814 23.9343 20.8806 23.8903 21.2802L18.7787 27.387C18.1359 28.1551 17.8595 29.1627 18.0205 30.1512L19.8519 41.398C20.0991 42.9174 21.3961 44.0202 22.9354 44.0202H25.0963C26.1873 44.0202 27.2139 43.4392 27.7754 42.5033L30.7561 37.5355C31.0655 37.0201 31.5588 36.6641 32.1454 36.5332C32.7321 36.4023 33.33 36.5145 33.8289 36.8495L34.0888 37.0239C34.9552 37.6053 35.2858 38.7236 34.8747 39.6828L32.1173 46.1179C31.8102 46.8349 32.1424 47.6649 32.8592 47.9722C33.0406 48.05 33.2292 48.0867 33.4149 48.0867C33.9628 48.0867 34.4842 47.7659 34.7136 47.2303L37.471 40.7953C38.4164 38.5888 37.6559 36.0165 35.6628 34.6788L35.4031 34.5045C34.2551 33.7341 32.8797 33.4754 31.5302 33.7767C30.1807 34.078 29.0458 34.8969 28.3344 36.0824L25.3537 41.0501C25.2998 41.1401 25.2012 41.1958 25.0965 41.1958H22.9356C22.7878 41.1958 22.6635 41.09 22.6396 40.944L20.8082 29.6973C20.7792 29.5193 20.8289 29.338 20.9447 29.1998L23.5457 26.0923C23.4647 28.5402 23.5253 30.9939 23.7302 33.4325C23.7954 34.2096 24.4774 34.7875 25.2556 34.7216C26.0327 34.6562 26.61 33.9733 26.5447 33.1962C26.1884 28.954 26.2858 24.6645 26.8337 20.4468L27.2216 17.4621C27.4033 16.0629 27.3756 14.6484 27.1393 13.2576C27.1365 13.241 27.1329 13.2247 27.1301 13.2081C27.1297 13.2066 27.1295 13.2053 27.1293 13.2038C26.9087 11.9354 26.5174 10.703 25.9643 9.54082L25.6988 8.98252C25.0601 7.64015 25.153 6.08821 25.9468 4.83151C26.7407 3.57482 28.1017 2.82445 29.5883 2.82445C30.8166 2.82445 31.948 3.32476 32.7747 4.23329C33.6013 5.14182 33.9926 6.31548 33.877 7.53828L33.8022 8.32894C33.6672 9.75416 33.9026 11.1993 34.4829 12.508C35.634 15.1042 37.9948 16.9243 40.7986 17.3766L48.141 18.5614C50.0833 18.8747 51.8834 19.6049 53.4478 20.6888C53.4962 20.7279 53.5468 20.7637 53.5994 20.7957C54.7952 21.6502 55.8493 22.7133 56.7153 23.9612C56.7451 24.0041 56.772 24.0485 56.8012 24.0918C56.8031 24.0947 56.8049 24.0975 56.8068 24.1003C58.7593 26.9897 59.4601 30.4561 58.7749 33.8827L55.8987 48.2669C55.7458 49.0318 56.2417 49.7757 57.0066 49.9286C57.1002 49.9473 57.1932 49.9563 57.2851 49.9563C57.9445 49.9563 58.5343 49.492 58.6685 48.8207L59.999 42.1674L63.7635 46.6649C63.8574 46.7773 63.8979 46.9245 63.8744 47.069L62.0573 58.2289C62.0204 58.4557 61.8268 58.6202 61.5973 58.6202H59.6718C59.5091 58.6202 59.3558 58.5336 59.2722 58.3939L56.4299 53.6569C55.6949 52.4319 54.522 51.5856 53.1279 51.2744C51.7337 50.9631 50.3121 51.2301 49.1256 52.0264C47.066 53.4087 46.2805 56.0669 47.2573 58.3464L51.1468 67.4239C52.8603 71.4223 55.9762 74.6341 59.9211 76.4676L61.5122 77.207L67.0366 84.6751C67.3136 85.0494 67.7405 85.2475 68.173 85.2475C68.4649 85.2475 68.7592 85.1573 69.0117 84.9705C69.6387 84.5067 69.7711 83.6223 69.3071 82.9953L63.5688 75.238C63.4285 75.0482 63.2428 74.8968 63.0287 74.7972L61.1113 73.9062C57.7986 72.3665 55.1818 69.6693 53.7427 66.3112L49.8532 57.2338C49.4107 56.2014 49.7668 54.9974 50.6994 54.3713C51.2368 54.0107 51.881 53.8895 52.5121 54.0307C53.1437 54.1717 53.6747 54.5549 54.0074 55.1098L56.8498 59.8468C57.441 60.8323 58.5222 61.4445 59.6714 61.4445H61.5969C63.2182 61.4445 64.5841 60.2831 64.8447 58.6827L66.6617 47.5224C66.8171 46.5673 66.5501 45.5938 65.9289 44.8518L60.7089 38.6154L61.4681 34.8189L74.9709 46.3517C75.8301 47.0855 76.3231 48.1545 76.3231 49.2845V54.5594C76.3231 55.3393 76.9552 55.9716 77.7353 55.9716C78.5154 55.9716 79.1475 55.3393 79.1475 54.5594V49.2848C79.1473 47.3275 78.2934 45.4756 76.8051 44.2044ZM59.5128 15.896C60.1643 15.845 60.7929 16.0949 61.2331 16.5795C61.6735 17.0642 61.8617 17.7123 61.7491 18.3574C61.4967 19.8043 60.5438 21.0218 59.1999 21.6142C59.0163 21.6952 58.8269 21.7562 58.6335 21.8012C58.0187 20.9902 57.3352 20.2506 56.5941 19.5844C57.5195 18.626 58.184 17.4696 58.5476 16.2186C58.8372 16.0352 59.1696 15.9226 59.5128 15.896ZM54.696 11.2944C55.4114 11.7087 55.8857 12.4163 55.9977 13.2354C56.0821 13.8526 56.0542 14.4685 55.928 15.0592C55.9211 15.0871 55.916 15.1153 55.9107 15.1436C55.6708 16.1836 55.1176 17.1394 54.3021 17.8763C53.0497 17.112 51.6893 16.5234 50.2473 16.132C50.2867 16.0858 50.3273 16.041 50.3652 15.9939C51.4765 14.616 52.0866 12.9432 52.1555 11.2278C52.2239 11.1927 52.2933 11.16 52.3645 11.1312C53.1305 10.8207 53.9801 10.88 54.696 11.2944ZM47.4869 7.61774C48.2619 7.90602 48.8483 8.52383 49.0963 9.3126C49.2284 9.73345 49.306 10.1631 49.3312 10.5925C49.3316 10.5968 49.3316 10.6009 49.332 10.6053C49.4047 11.8981 49.0006 13.1868 48.1664 14.2209C47.7964 14.68 47.3191 15.056 46.7858 15.3084L46.5128 15.4375L43.3121 14.921C43.9985 14.2004 44.5485 13.3454 44.9138 12.421C45.519 10.8902 45.6981 9.25969 45.4768 7.68289C46.1099 7.39913 46.8246 7.37126 47.4869 7.61774ZM37.0648 11.3632C36.6805 10.4962 36.5246 9.53912 36.614 8.595L36.6888 7.80434C36.785 6.7881 36.6585 5.77243 36.334 4.82398C37.0213 4.11598 37.9677 3.74372 38.9621 3.79757C40.0211 3.855 40.9752 4.3877 41.5798 5.25895C42.0206 5.89426 42.336 6.59152 42.5275 7.31647C42.5377 7.36411 42.5505 7.41118 42.5657 7.45769C42.8749 8.74413 42.7892 10.1127 42.2871 11.3826C42.0159 12.0685 41.5858 12.6954 41.0432 13.1951L39.9424 14.2091C38.6725 13.6657 37.6403 12.6611 37.0648 11.3632Z" fill="#BA7894"/>
<path d="M41.9766 62.0821C41.4693 62.0821 40.9791 61.8081 40.7261 61.3283C39.8121 59.5949 39.3291 57.6368 39.3291 55.6655C39.3291 52.2215 40.7989 48.925 43.3619 46.6212C43.9422 46.0994 44.8347 46.1474 45.3563 46.7274C45.8777 47.3073 45.8302 48.2003 45.2501 48.7216C43.2822 50.4907 42.1537 53.0214 42.1537 55.6653C42.1537 57.1794 42.5241 58.682 43.2248 60.0108C43.5886 60.7009 43.3242 61.555 42.6343 61.9186C42.4239 62.0295 42.1987 62.0821 41.9766 62.0821Z" fill="#BA7894"/>
<path d="M49.2651 46.5617C48.6111 46.5617 48.0242 46.1049 47.8845 45.4394C47.7241 44.6761 48.2129 43.9274 48.9762 43.7672C50.5171 43.4435 52.1445 43.423 53.6933 43.7071C54.4604 43.848 54.9682 44.5838 54.8274 45.3509C54.6865 46.1181 53.951 46.6259 53.1835 46.4852C51.9946 46.267 50.7402 46.2826 49.5569 46.5314C49.4592 46.5519 49.3613 46.5617 49.2651 46.5617Z" fill="#BA7894"/>
<path d="M42.6533 42.6477C42.5041 42.6477 42.3522 42.624 42.203 42.5737C41.4638 42.3252 41.0659 41.5244 41.3145 40.7851C41.611 39.9033 41.7613 38.9793 41.7613 38.0388C41.7613 33.2916 37.8991 29.4295 33.152 29.4295C32.5668 29.4295 31.9825 29.4882 31.4153 29.6044C30.6514 29.7615 29.905 29.2681 29.7487 28.504C29.5922 27.7399 30.085 26.9937 30.8491 26.8374C31.6021 26.6834 32.377 26.6052 33.152 26.6052C39.4565 26.6052 44.5858 31.7344 44.5858 38.039C44.5858 39.2861 44.3858 40.513 43.9917 41.6854C43.7932 42.2753 43.243 42.6477 42.6533 42.6477Z" fill="#BA7894"/>
</svg>
