<svg width="96" height="96" viewBox="0 0 96 96" fill="none" xmlns="http://www.w3.org/2000/svg">
<path d="M39.1287 62.1707H9.36865V35.2352C9.36865 27.9115 15.3068 21.9733 22.6305 21.9733H27.6433L31.356 34.9691L39.1287 62.1707Z" fill="white"/>
<path d="M39.1287 62.1707H9.36865V55.9251L31.3562 34.9691L39.1287 62.1707Z" fill="white"/>
<path d="M74.2972 52.1617L56.9198 37.8247H40.3602L22.9829 52.1617C18.8954 55.5343 21.28 62.1716 26.5792 62.1716H48.6402L48.64 62.1707H48.6408L48.6406 62.1716H70.7017C76.0002 62.1716 78.385 55.5341 74.2972 52.1617Z" fill="white"/>
<path d="M87.4698 75.7611H8.53005C4.77705 75.7611 1.73486 72.7187 1.73486 68.9659C1.73486 65.2129 4.77724 62.1707 8.53005 62.1707H87.4696C91.2226 62.1707 94.2648 65.2131 94.2648 68.9659C94.265 72.7189 91.2226 75.7611 87.4698 75.7611Z" fill="white"/>
<path d="M94.265 68.9657C94.265 70.8418 93.5039 72.5421 92.2756 73.7704C91.0451 75.0009 89.3471 75.762 87.4687 75.762H8.52893C4.77686 75.762 1.73486 72.7178 1.73486 68.9657C1.73486 67.7282 2.06561 66.5693 2.6463 65.5699C3.81911 67.6009 6.01436 68.9657 8.52893 68.9657H87.4687C89.3471 68.9657 91.0451 68.2046 92.2756 66.9763C92.6943 66.5576 93.0575 66.0857 93.3535 65.5699C93.9342 66.5693 94.265 67.7282 94.265 68.9657Z" fill="white"/>
<path d="M18.0632 75.761H10.2268V92.8815H18.0632V75.761Z" fill="white"/>
<path d="M85.7746 75.761H77.9382V92.8815H85.7746V75.761Z" fill="white"/>
<path d="M48.6407 56.5626C55.7639 56.5626 61.5384 50.788 61.5384 43.6648C61.5384 36.5416 55.7639 30.7671 48.6407 30.7671C41.5174 30.7671 35.7429 36.5416 35.7429 43.6648C35.7429 50.788 41.5174 56.5626 48.6407 56.5626Z" fill="white"/>
<path d="M61.5371 43.6648C61.5371 50.7896 55.7632 56.5635 48.6406 56.5635C41.5158 56.5635 35.7419 50.7896 35.7419 43.6648C35.7419 42.6124 35.8668 41.5898 36.1074 40.6114C37.4791 46.2604 42.5683 50.4542 48.6406 50.4542C54.7106 50.4542 59.7997 46.2602 61.1714 40.6114C61.4122 41.5898 61.5371 42.6122 61.5371 43.6648Z" fill="white"/>
<path d="M24.2891 28.9146C31.4123 28.9146 37.1869 23.14 37.1869 16.0168C37.1869 8.89357 31.4123 3.11905 24.2891 3.11905C17.1659 3.11905 11.3914 8.89357 11.3914 16.0168C11.3914 23.14 17.1659 28.9146 24.2891 28.9146Z" fill="white"/>
<path d="M96 68.9659C96 64.2622 92.1735 60.4357 87.4699 60.4357H76.9646C77.2367 59.9953 77.4701 59.5226 77.6516 59.0171C78.7185 56.0479 77.8354 52.8315 75.4013 50.8234L62.9321 40.5356C61.4944 33.9669 55.6341 29.0334 48.6401 29.0334C41.9173 29.0334 36.2426 33.5921 34.5354 39.7796L31.3988 28.8C35.8821 26.2967 38.9222 21.5061 38.9222 16.0168C38.9222 7.9485 32.3582 1.38412 24.2895 1.38412C16.2208 1.38412 9.65644 7.94794 9.65644 16.0162C9.65644 19.1237 10.6331 22.0059 12.2914 24.378C9.318 27.2027 7.63369 31.0845 7.63369 35.2352V60.4832C3.35006 60.9326 0 64.5654 0 68.9662C0 73.6566 3.8055 77.4742 8.49131 77.4954V82.5382C8.49131 83.4964 9.26813 84.2732 10.2262 84.2732C11.1844 84.2732 11.9612 83.4964 11.9612 82.5382V77.496H16.3277V91.1458H11.9612V90.7948C11.9612 89.8367 11.1844 89.0599 10.2262 89.0599C9.26813 89.0599 8.49131 89.8367 8.49131 90.7948V92.8809C8.49131 93.8391 9.26813 94.6159 10.2262 94.6159H18.0626C19.0208 94.6159 19.7976 93.8391 19.7976 92.8809V91.2519L47.694 77.6902L76.0427 91.4719C76.0954 91.4976 76.1488 91.5187 76.2026 91.5388V92.8809C76.2026 93.8391 76.9794 94.6159 77.9376 94.6159H85.7739C86.7321 94.6159 87.5089 93.8391 87.5089 92.8809V77.4951C92.1945 77.4739 96 73.6564 96 68.9659ZM74.3861 57.8437C73.9359 59.0968 72.7313 60.4357 70.6999 60.4357H50.3749V58.1921C53.0976 57.8687 55.5919 56.7958 57.6478 55.1846C57.7926 55.2236 57.9441 55.2467 58.1012 55.2467H64.4241C65.3822 55.2467 66.159 54.4699 66.159 53.5117C66.159 52.5536 65.3822 51.7768 64.4241 51.7768H60.8119C62.0887 49.8667 62.928 47.6411 63.1864 45.2437L73.1929 53.4997C74.7592 54.792 74.8363 56.5909 74.3861 57.8437ZM22.8932 57.8437C22.443 56.5909 22.5201 54.7918 24.0864 53.4997L34.0939 45.243C34.3521 47.6407 35.1913 49.8666 36.4684 51.7768H32.8562C31.8981 51.7768 31.1213 52.5536 31.1213 53.5117C31.1213 54.4699 31.8981 55.2467 32.8562 55.2467H38.8472C39.0906 55.2467 39.3219 55.1963 39.5319 55.1059C41.6064 56.7609 44.1381 57.8638 46.9052 58.1925V60.4361H26.5793C24.5483 60.4357 23.3436 59.097 22.8932 57.8437ZM48.6401 32.5031C54.7952 32.5031 59.8029 37.5107 59.8029 43.6659C59.8029 49.8212 54.7954 54.8288 48.6401 54.8288C42.4849 54.8288 37.4773 49.8212 37.4773 43.6659C37.4773 37.5107 42.4851 32.5031 48.6401 32.5031ZM24.2891 4.85344C30.4442 4.85344 35.4519 9.861 35.4519 16.0162C35.4519 22.1715 30.4442 27.1791 24.2891 27.1791C18.1341 27.1791 13.1263 22.1717 13.1263 16.0162C13.1263 9.86081 18.1341 4.85344 24.2891 4.85344ZM14.6001 26.9683C17.1831 29.2562 20.5757 30.6489 24.2891 30.6489C25.632 30.6489 26.9316 30.4635 28.1677 30.1232L31.7541 42.6748L26.4789 47.0269L23.8153 39.0081C23.5133 38.0987 22.5309 37.6063 21.6219 37.9086C20.7126 38.2106 20.2204 39.1926 20.5224 40.1019L23.6094 49.3948L21.8783 50.8232C19.4445 52.8315 18.561 56.0477 19.6279 59.0171C19.8094 59.5228 20.0428 59.9953 20.3149 60.4357H11.1036V35.2352C11.1036 32.0841 12.366 29.1332 14.6001 26.9683ZM19.7976 77.496H40.1572L19.7976 87.3937V77.496ZM79.6723 91.1462V77.4962H84.0388V91.146H79.6723V91.1462ZM87.4699 74.0261H72.6362C71.6781 74.0261 70.9013 74.8029 70.9013 75.7611C70.9013 76.7192 71.6781 77.496 72.6362 77.496H76.2028V87.6915L55.2309 77.496H63.2741C64.2323 77.496 65.0091 76.7192 65.0091 75.7611C65.0091 74.8029 64.2323 74.0261 63.2741 74.0261H8.53012C5.73994 74.0261 3.46988 71.7561 3.46988 68.9659C3.46988 66.1757 5.73994 63.9056 8.53012 63.9056H26.5793H70.6999H87.4699C90.2601 63.9056 92.5301 66.1757 92.5301 68.9659C92.5301 71.7561 90.2601 74.0261 87.4699 74.0261Z" fill="#BA7894"/>
</svg>
