<svg width="96" height="96" viewBox="0 0 96 96" fill="none" xmlns="http://www.w3.org/2000/svg">
<mask id="mask0_1_935" style="mask-type:luminance" maskUnits="userSpaceOnUse" x="0" y="0" width="96" height="96">
<path d="M0 7.62939e-06H96V96H0V7.62939e-06Z" fill="white"/>
</mask>
<g mask="url(#mask0_1_935)">
<path d="M59.7383 71.4548V52.4592H36.2618V71.4548C36.2618 72.4741 35.5951 73.372 34.6197 73.6675C25.6073 76.3971 10.8623 79.0594 10.8623 91.4367V92.7691C10.8623 93.7769 11.6792 94.5938 12.6871 94.5938H83.313C84.3209 94.5938 85.1378 93.7769 85.1378 92.7691V91.4367C85.1378 79.0594 70.3928 76.3971 61.3804 73.6675C60.405 73.372 59.7383 72.4741 59.7383 71.4548Z" fill="#F9F9F9"/>
<path d="M61.3804 73.6676C60.4048 73.3721 59.7383 72.4741 59.7383 71.4549V52.4593H54.1133V73.5174C54.1133 74.5366 54.7798 75.4346 55.7554 75.7301C64.7676 78.4597 79.5128 79.4345 79.5128 91.8118V92.7691C79.5128 93.7768 78.6958 94.5937 77.688 94.5937H83.313C84.3208 94.5937 85.1378 93.7769 85.1378 92.7691V91.4368C85.1378 79.0595 70.3926 76.3972 61.3804 73.6676Z" fill="white"/>
<path d="M76.4076 34.5696V29.8138C76.4076 14.1248 63.6891 1.40627 48 1.40627C32.3108 1.40627 19.5923 14.1248 19.5923 29.8138V34.5696H76.4076Z" fill="white"/>
<path d="M48 1.40627C46.5225 1.40627 45.0713 1.51933 43.6545 1.73683C58.029 3.88746 70.7826 16.306 70.7826 31.3052V34.5696H76.4076V29.8138C76.4076 14.1248 63.6891 1.40627 48 1.40627Z" fill="white"/>
<path d="M44.3606 16.0418C33.9811 16.0418 25.5669 24.4561 25.5669 34.8355V44.8995C25.5669 56.1272 40.7529 64.2767 48.0001 64.2767C55.2474 64.2767 70.4336 56.1272 70.4336 44.8995V34.8355C70.4336 24.4561 62.0193 16.0418 51.6397 16.0418H44.3606Z" fill="#F9F9F9"/>
<path d="M51.6396 16.0418H46.0146C56.394 16.0418 64.8083 24.4561 64.8083 34.8355V44.8995C64.8083 54.8226 52.9474 62.34 45.1875 63.9533C46.2077 64.1654 47.1579 64.2767 48 64.2767C55.2472 64.2767 70.4333 56.1272 70.4333 44.8995V34.8355C70.4333 24.4561 62.019 16.0418 51.6396 16.0418Z" fill="white"/>
<path d="M35.2428 56.8056L27.8191 49.2241L26.0696 40.6536L27.5656 33.9151L18.5557 21.4773L15.7256 5.69033C15.6341 5.1807 15.1469 4.8417 14.6373 4.93301L2.92494 7.03283C2.39919 7.12714 2.0585 7.6407 2.17569 8.16158L9.87313 42.3498C10.7276 46.1451 12.9254 49.5034 16.0616 51.8058L33.2009 64.3885C33.9738 64.9561 35.0662 64.8186 35.6551 64.0619C37.3535 61.8792 37.1756 58.7794 35.2428 56.8056Z" fill="white"/>
<path d="M20.9968 35.0927L22.7121 44.6605C23.0374 46.4745 24.7714 47.6813 26.5855 47.3561C28.3993 47.0308 29.6063 45.2968 29.281 43.483L27.5657 33.915L20.9968 35.0927Z" fill="white"/>
<path d="M60.7572 56.8056L68.1809 49.2241L69.9305 40.6536L68.4344 33.9151L77.4444 21.4773L80.2745 5.69033C80.366 5.1807 80.8531 4.8417 81.3627 4.93301L93.0751 7.03283C93.6009 7.12714 93.9415 7.6407 93.8244 8.16158L86.1269 42.3498C85.2725 46.1451 83.0746 49.5034 79.9385 51.8058L62.7991 64.3885C62.0262 64.9561 60.9339 64.8186 60.3449 64.0619C58.6465 61.8792 58.8245 58.7794 60.7572 56.8056Z" fill="white"/>
<path d="M93.0751 7.03283L89.0122 6.30439C89.288 6.5202 89.4331 6.88245 89.3504 7.24901L81.6532 41.4372C80.7985 45.2326 78.6007 48.5911 75.4647 50.8932L59.5269 62.5939C59.719 63.1107 59.9905 63.6064 60.3449 64.0619C60.9339 64.8186 62.026 64.9561 62.7989 64.3885L79.9385 51.8058C83.0746 49.5034 85.2723 46.1451 86.1269 42.3498L93.8244 8.16158C93.9415 7.6407 93.6007 7.12714 93.0751 7.03283Z" fill="white"/>
<path d="M75.0033 35.0927L73.2881 44.6605C72.9628 46.4745 71.2288 47.6813 69.4147 47.3561C67.6008 47.0308 66.3939 45.2968 66.7192 43.483L68.4345 33.915L75.0033 35.0927Z" fill="white"/>
<path d="M76.1327 78.6713C81.1896 81.2288 85.1383 85.0332 85.1383 91.4363V92.7694C85.1383 93.7763 84.3208 94.5938 83.3139 94.5938H12.6864C11.6796 94.5938 10.8621 93.7763 10.8621 92.7694V91.4363C10.8621 79.0594 25.6071 76.3969 34.6202 73.6669C35.5952 73.3725 36.2627 72.4744 36.2627 71.4544V63.0844" stroke="#BA7894" stroke-width="3" stroke-miterlimit="10" stroke-linecap="round" stroke-linejoin="round"/>
<path d="M59.7375 63.0844V71.4544C59.7375 72.4744 60.405 73.3725 61.38 73.6669C63.9413 74.4432 66.9657 75.2138 69.9807 76.2019" stroke="#BA7894" stroke-width="3" stroke-miterlimit="10" stroke-linecap="round" stroke-linejoin="round"/>
<path d="M48 1.40628C61.6237 1.40628 73.0069 10.995 75.7669 23.7919" stroke="#BA7894" stroke-width="3" stroke-miterlimit="10" stroke-linecap="round" stroke-linejoin="round"/>
<path d="M26.5314 28.8825C26.2426 29.7469 26.0139 30.6375 25.8545 31.5525" stroke="#BA7894" stroke-width="3" stroke-miterlimit="10" stroke-linecap="round" stroke-linejoin="round"/>
<path d="M36.8176 60.5981C40.8226 62.9381 45.0639 64.2769 48.0001 64.2769C50.9383 64.2769 55.1776 62.9381 59.1826 60.6" stroke="#BA7894" stroke-width="3" stroke-miterlimit="10" stroke-linecap="round" stroke-linejoin="round"/>
<path d="M41.7339 16.2263C42.5926 16.1044 43.4701 16.0425 44.3608 16.0425H51.6395C60.9001 16.0425 68.5933 22.7381 70.1458 31.5525" stroke="#BA7894" stroke-width="3" stroke-miterlimit="10" stroke-linecap="round" stroke-linejoin="round"/>
<path d="M26.5259 28.8953C29.9133 20.7658 51.8243 10.3695 64.105 6.41158C59.5279 3.25577 53.9804 1.40627 48.0001 1.40627C43.2226 1.40627 38.7205 2.58564 34.7691 4.66914" stroke="#BA7894" stroke-width="3" stroke-miterlimit="10" stroke-linecap="round" stroke-linejoin="round"/>
<path d="M27.3863 47.1056C28.7382 46.4869 29.5557 45.0131 29.2801 43.4831L27.5663 33.915L18.5551 21.4763L15.7257 5.69065C15.6338 5.18065 15.1463 4.84128 14.6382 4.93315L2.92509 7.03315C2.40009 7.1269 2.05884 7.64065 2.17509 8.1619L9.87384 42.3506C10.727 46.1456 12.9263 49.5038 16.0613 51.8063L33.2007 64.3894C33.9732 64.9556 35.0663 64.8188 35.6551 64.0613C37.3538 61.8788 37.1757 58.7794 35.2426 56.805L27.8195 49.2244L27.3863 47.1056ZM27.3863 47.1056C27.137 47.22 26.8688 47.3063 26.5857 47.3569C24.7707 47.6813 23.0382 46.4738 22.712 44.6606L20.9963 35.0925" stroke="#BA7894" stroke-width="3" stroke-miterlimit="10" stroke-linecap="round" stroke-linejoin="round"/>
<path d="M75.0033 35.0927L73.2881 44.6605C72.9627 46.4745 71.2287 47.6813 69.4147 47.3562C67.6008 47.0308 66.3939 45.2968 66.7192 43.483L68.4344 33.915L77.4451 21.4763L80.2745 5.69065C80.3664 5.18065 80.8539 4.84128 81.362 4.93316L93.0751 7.03315C93.6001 7.1269 93.9414 7.64066 93.8251 8.16191L86.1264 42.3507C85.2732 46.1457 83.0739 49.5038 79.9389 51.8063L62.7995 64.3894C62.027 64.9556 60.9339 64.8188 60.3451 64.0613C58.6464 61.8788 58.8245 58.7794 60.7576 56.805L68.1807 49.2244L68.6139 47.1057" stroke="#BA7894" stroke-width="3" stroke-miterlimit="10" stroke-linecap="round" stroke-linejoin="round"/>
<path d="M34.6658 36.7286C36.483 35.6135 38.3003 35.6135 40.1177 36.7286" stroke="#BA7894" stroke-width="3" stroke-miterlimit="10" stroke-linecap="round" stroke-linejoin="round"/>
<path d="M55.8823 36.7286C57.6996 35.6135 59.5168 35.6135 61.3343 36.7286" stroke="#BA7894" stroke-width="3" stroke-miterlimit="10" stroke-linecap="round" stroke-linejoin="round"/>
<path d="M42.9661 51.2125C46.1781 52.6024 49.8218 52.6024 53.0339 51.2125" stroke="#BA7894" stroke-width="3" stroke-miterlimit="10" stroke-linecap="round" stroke-linejoin="round"/>
<path d="M20.2332 23.7919C21.5438 17.7207 24.7932 12.3713 29.3044 8.42628" stroke="#BA7894" stroke-width="3" stroke-miterlimit="10" stroke-linecap="round" stroke-linejoin="round"/>
</g>
</svg>
