<svg width="96" height="96" viewBox="0 0 96 96" fill="none" xmlns="http://www.w3.org/2000/svg">
<path d="M34.5 19.5C38.6421 19.5 42 16.1421 42 12C42 7.85786 38.6421 4.5 34.5 4.5C30.3579 4.5 27 7.85786 27 12C27 16.1421 30.3579 19.5 34.5 19.5Z" fill="white"/>
<path d="M79.9957 46.1211C77.8269 42.6336 73.9207 40.5 69.7057 40.5H26.4639C22.1575 40.5 18.1814 42.7262 16.0449 46.3335L10.0713 56.4187L10.4999 63H85.4999V54.9722L79.9957 46.1211Z" fill="white"/>
<path d="M16.2188 68.9981H37.5L46.5 65.9347L81 69H84.1553C88.2116 69 91.5 65.6422 91.5 61.5C91.5 57.2355 88.0223 53.829 83.85 54.0065L16.2188 59.808V68.9981Z" fill="white"/>
<path d="M60.7353 30.1974L59.5467 30.7562L55.0762 21.2477L56.2647 20.6887C57.2104 20.2441 58.294 20.1934 59.2771 20.5477C60.2602 20.902 61.0622 21.6323 61.5069 22.578L62.6249 24.9551C62.8451 25.4234 62.9708 25.9305 62.995 26.4474C63.0192 26.9642 62.9413 27.4808 62.7658 27.9676C62.5904 28.4544 62.3207 28.9019 61.9723 29.2845C61.6239 29.6671 61.2036 29.9773 60.7353 30.1974Z" fill="white"/>
<path d="M32.2098 43.6093L33.3984 43.0504L28.9276 33.5419L27.739 34.1006C26.7933 34.5453 26.063 35.3474 25.7087 36.3305C25.3544 37.3136 25.4052 38.3972 25.8498 39.3429L26.9675 41.7201C27.4121 42.6658 28.2142 43.3961 29.1974 43.7504C30.1805 44.1047 31.2641 44.0539 32.2098 43.6093Z" fill="white"/>
<path d="M60.3907 43.125C61.2986 38.1566 60.7356 33.0312 58.771 28.3783L55.1305 19.7569C54.3372 17.878 53.1725 16.1787 51.7062 14.7611C50.24 13.3434 48.5025 12.2365 46.598 11.5068C44.6935 10.7772 42.6612 10.4398 40.6231 10.5148C38.5849 10.5899 36.583 11.0759 34.7373 11.9438C32.8916 12.8115 31.2402 14.0432 29.8822 15.565C28.5243 17.0867 27.4877 18.867 26.8347 20.7992C26.1817 22.7314 25.9258 24.7755 26.0822 26.8091C26.2387 28.8426 26.8043 30.8235 27.7452 32.6331L32.0626 40.9363C34.3926 45.4175 37.9806 49.1206 42.386 51.5908C44.4233 52.7333 46.7092 53.36 49.0443 53.4163C50.675 53.4557 52.2924 53.1149 53.7686 52.4209C55.2447 51.7268 56.539 50.6986 57.5489 49.4177C58.9952 47.5833 59.9708 45.4229 60.3907 43.125Z" fill="white"/>
<path d="M60.39 43.125C59.9714 45.423 58.9961 47.5835 57.5494 49.4175C56.5657 50.6652 55.3119 51.6736 53.8823 52.367C52.4527 53.0603 50.8845 53.4206 49.2957 53.4206C49.2113 53.4206 49.1288 53.4188 49.0444 53.4169C46.7094 53.3597 44.4237 52.7328 42.3863 51.5906C37.9806 49.121 34.3924 45.4181 32.0626 40.9369L27.8044 32.7487V32.7469L27.7444 32.6325C26.8037 30.8229 26.2382 28.842 26.0819 26.8085C25.9256 24.775 26.1816 22.7309 26.8347 20.7987C27.4878 18.8666 28.5244 17.0864 29.8824 15.5647C31.2404 14.0431 32.8918 12.8115 34.7375 11.9437C36.5832 11.076 38.5851 10.59 40.6232 10.515C42.6613 10.4399 44.6936 10.7773 46.5981 11.507C48.5026 12.2367 50.2401 13.3435 51.7063 14.7612C53.1725 16.1788 54.3373 17.878 55.1307 19.7569L55.1982 19.9162L58.7719 28.3781C60.736 33.0312 61.2984 38.1567 60.39 43.125Z" fill="white"/>
<path d="M55.1981 19.9162C53.4131 17.8312 51.6468 16.3781 49.8318 15.48C48.9316 15.0299 47.973 14.7074 46.9837 14.5219C46.0314 14.3502 45.0609 14.3017 44.0962 14.3775C42.9892 14.469 41.8953 14.6803 40.8337 15.0075C39.9614 15.2735 39.1051 15.589 38.2687 15.9525C37.8731 16.1212 37.47 16.305 37.0631 16.5C36.5437 16.75 36.0462 17.0062 35.5706 17.2687C34.5937 17.8035 33.6591 18.4122 32.775 19.0894C31.9586 19.7147 31.205 20.418 30.525 21.1894C30.0001 21.785 29.533 22.4291 29.13 23.1131C28.6165 23.9796 28.2181 24.9093 27.945 25.8787C27.3618 27.9375 27.3168 30.2194 27.8043 32.7469L27.7443 32.6325C26.6205 30.4806 26.0332 28.089 26.0325 25.6612C26.0325 25.515 26.0343 25.3687 26.04 25.2244C26.1018 23.1012 26.6076 21.0145 27.525 19.0987C27.9588 18.1924 28.4813 17.3313 29.085 16.5281C30.2429 14.9905 31.6853 13.6895 33.3337 12.6956C33.7886 12.421 34.2573 12.17 34.7381 11.9437C35.1693 11.7412 35.6043 11.5612 36.0431 11.4037C38.8957 10.3702 41.9936 10.2206 44.9325 10.9744C45.9573 11.2382 46.952 11.6077 47.9006 12.0769C51.1552 13.6849 53.7218 16.4112 55.1306 19.7569L55.1981 19.9162Z" fill="white"/>
<path d="M11.4729 68.9981H16.5L45 58.5L66 55.5L60 51H43.5L17.9387 53.5558C14.9887 53.8509 12.0806 54.4728 9.26794 55.4102C7.87958 55.873 6.67202 56.7608 5.8163 57.948C4.96057 59.1352 4.50006 60.5615 4.5 62.025C4.49998 62.9407 4.68032 63.8475 5.03073 64.6935C5.38114 65.5395 5.89476 66.3082 6.54226 66.9557C7.18976 67.6032 7.95846 68.1169 8.80447 68.4673C9.65047 68.8178 10.5572 68.9981 11.4729 68.9981Z" fill="white"/>
<path d="M87 69H9C6.51472 69 4.5 71.0147 4.5 73.5V79.5C4.5 81.9853 6.51472 84 9 84H87C89.4853 84 91.5 81.9853 91.5 79.5V73.5C91.5 71.0147 89.4853 69 87 69Z" fill="#EBEBE9"/>
<path d="M20.9541 83.6782L19.5698 83.7756L20.041 88.6296C20.2068 90.3358 21.787 91.6168 23.5709 91.4915C25.3548 91.3663 26.6665 89.8817 26.5009 88.1756C26.2407 85.4949 23.7573 83.4814 20.9541 83.6782Z" fill="white"/>
<path d="M20.1199 84.9907L19.5699 83.7742L14.8884 85.5947C13.2429 86.2346 12.4837 88.0241 13.1925 89.5918C13.9012 91.1595 15.8096 91.9117 17.4549 91.2718C20.0405 90.2664 21.2336 87.4543 20.1199 84.9907Z" fill="white"/>
<path d="M16.146 80.0269C15.5735 79.42 14.7936 79.0507 13.9613 78.9925C13.129 78.9342 12.3053 79.1912 11.6538 79.7124L11.6058 79.7516C11.2916 79.9978 11.0319 80.3065 10.8431 80.6582C10.6544 81.0099 10.5408 81.397 10.5094 81.795C10.478 82.1929 10.5297 82.593 10.661 82.97C10.7923 83.3469 11.0005 83.6925 11.2723 83.9848L11.4317 84.159C13.236 86.1326 16.3965 86.3539 18.4903 84.6533L19.5725 83.7744L16.146 80.0269Z" fill="white"/>
<path d="M21.0387 75.4607C19.498 74.5684 17.5079 75.0116 16.5934 76.4509C15.1563 78.7121 15.9537 81.6821 18.3747 83.084L19.57 83.7765L22.1721 79.6819C23.0866 78.2437 22.579 76.3528 21.0387 75.4607Z" fill="white"/>
<path d="M25.9688 78.9675C23.2223 78.333 20.4938 79.9132 19.875 82.4972L19.5696 83.7733H19.5739L20.9539 83.6773C22.3564 83.5799 23.7407 84.0396 24.8063 84.9566C26.4611 85.2065 28.0459 84.2364 28.4198 82.6753C28.8137 81.0317 27.7161 79.3714 25.9688 78.9675Z" fill="white"/>
<path d="M87 69H68.5875C56.292 76.8669 40.4895 81.4365 28.2456 84H87C88.1935 84 89.3381 83.5259 90.182 82.682C91.0259 81.8381 91.5 80.6935 91.5 79.5V73.5C91.5 72.3065 91.0259 71.1619 90.182 70.318C89.3381 69.4741 88.1935 69 87 69Z" fill="#E0E0DE"/>
<path d="M93 61.5C93.0112 59.4363 92.3064 57.4325 91.0058 55.8302C89.7052 54.2279 87.8892 53.1261 85.8673 52.7126L81.2681 45.3324C78.8379 41.4259 74.4067 39 69.7046 39H62.2704C62.3267 36.485 62.03 33.9746 61.3892 31.542C62.6883 30.9251 63.6902 29.8189 64.176 28.4653C64.6618 27.1117 64.5918 25.6209 63.9814 24.3187L62.8594 21.9399C62.3084 20.7732 61.3598 19.8409 60.1836 19.3104C59.0074 18.7798 57.6807 18.6857 56.4414 19.0449C55.1164 15.9555 52.881 13.3434 50.0332 11.5571C48.1153 10.3353 45.9608 9.53257 43.7109 9.20156C43.491 9.16406 43.2347 9.15937 43.0018 9.13349C42.6 7.9158 41.942 6.79832 41.0721 5.85627C40.2021 4.91422 39.1405 4.16947 37.9586 3.67215C36.7767 3.17482 35.5019 2.93646 34.2202 2.97312C32.9384 3.00978 31.6794 3.3206 30.5279 3.88466C29.3763 4.44872 28.359 5.25293 27.5443 6.24316C26.7296 7.23339 26.1366 8.38665 25.805 9.62531C25.4734 10.864 25.4111 12.1593 25.6221 13.4241C25.8332 14.6889 26.3127 15.8938 27.0285 16.9577C25.797 18.9364 25 21.154 24.69 23.4639C24.5889 24.193 24.5387 24.9282 24.54 25.6642C24.5348 28.2799 25.1569 30.8586 26.3541 33.1841C25.4108 33.8348 24.6966 34.7662 24.3128 35.8459C23.9291 36.9257 23.8954 38.0989 24.2166 39.1989C20.2753 39.8437 16.7676 42.1537 14.7615 45.567L9.96356 53.6338C9.57337 53.7514 9.18 53.8588 8.79338 53.9884C7.37791 54.4583 6.11187 55.2941 5.1236 56.4112C4.13533 57.5282 3.45998 58.8866 3.16601 60.3488C2.87205 61.811 2.96992 63.3249 3.4497 64.7371C3.92949 66.1492 4.77413 67.4094 5.898 68.3899C5.01614 68.9204 4.28607 69.6694 3.7784 70.5646C3.27072 71.4598 3.00262 72.4709 3 73.5V79.5C3.00022 80.3449 3.17854 81.1802 3.52332 81.9516C3.86811 82.7229 4.37161 83.4129 5.001 83.9766L6.999 81.7384C6.68453 81.4564 6.43303 81.1114 6.2609 80.7257C6.08877 80.34 5.99987 79.9223 6 79.5V73.5C6.00104 72.7047 6.31745 71.9422 6.87983 71.3798C7.44221 70.8174 8.20467 70.501 9 70.5H87C87.7953 70.501 88.5578 70.8174 89.1202 71.3798C89.6826 71.9422 89.999 72.7047 90 73.5V79.5C89.999 80.2953 89.6826 81.0578 89.1202 81.6202C88.5578 82.1825 87.7953 82.4989 87 82.5H33V85.5H87C88.5908 85.4984 90.116 84.8658 91.2409 83.7409C92.3658 82.616 92.9984 81.0908 93 79.5V73.5C92.9964 72.4387 92.7104 71.3974 92.1714 70.4831C91.6323 69.5689 90.8596 68.8145 89.9327 68.2976C90.8982 67.448 91.6712 66.4022 92.2002 65.2299C92.7291 64.0577 93.0018 62.7861 93 61.5ZM78.7222 46.9189L82.2988 52.6592L66.5336 54.0259L60.9 49.8C60.6405 49.6049 60.3246 49.4996 60 49.5H59.3203C60.5836 47.6677 61.4498 45.5914 61.8634 43.4046C61.9494 42.9519 62.0216 42.4809 62.0816 41.9998H69.7046C73.3785 42 76.8339 43.8838 78.7222 46.9189ZM60.1436 23.2147L61.2686 25.6011C61.5105 26.1202 61.5614 26.708 61.4121 27.261C61.2628 27.8139 60.9231 28.2963 60.4528 28.6232C60.3471 28.3506 60.2653 28.0607 60.1509 27.7969L57.6354 21.8437C58.1448 21.777 58.6623 21.8738 59.1131 22.1202C59.5639 22.3667 59.9248 22.7499 60.1436 23.2147ZM53.7452 20.3422L57.3926 28.9761C57.7017 29.6913 57.9692 30.4237 58.1938 31.1698C59.1324 34.1488 59.4822 37.2821 59.2236 40.3948C59.1695 41.22 59.0663 42.0413 58.9146 42.8542C58.5342 44.909 57.6653 46.8421 56.3813 48.4907C56.0904 48.852 55.7718 49.1902 55.4284 49.5021L42.0981 49.6333C39.0751 47.7555 36.5058 45.2311 34.575 42.2417C34.1489 41.5986 33.7577 40.9331 33.4031 40.248L29.079 31.9438C28.0768 30.0338 27.5509 27.91 27.546 25.7531L28.6322 26.1446L29.6488 23.3233L27.8899 22.6892C28.0957 21.763 28.3988 20.8611 28.794 19.9986L32.169 22.2486L33.8333 19.7526L30.3234 17.4129C31.3441 16.0586 32.6107 14.9088 34.0571 14.0235L36.1729 18.5235L38.8886 17.2461L36.7719 12.744C38.3147 12.214 39.9418 11.9725 41.5719 12.0315L40.5456 16.1366L43.4548 16.8634L44.5631 12.4296C45.5428 12.6792 46.4906 13.0405 47.3878 13.5064L46.7477 15.2842L49.569 16.3009L49.9577 15.2214C51.6092 16.6031 52.9076 18.3585 53.7452 20.3422ZM27.7511 35.8875L30.7442 41.6361C30.8886 41.9092 31.0254 42.1577 31.1576 42.3947C30.6062 42.5457 30.019 42.496 29.5008 42.2543C28.9827 42.0126 28.5672 41.5947 28.3286 41.0751L27.2051 38.7126C26.9886 38.2438 26.9249 37.7189 27.0228 37.212C27.1208 36.7051 27.3756 36.2418 27.7511 35.8875ZM34.5 5.99999C35.5665 6.00235 36.613 6.28921 37.5316 6.83097C38.4502 7.37273 39.2077 8.14977 39.7258 9.08193C35.6175 9.42529 31.7866 11.2944 28.9875 14.3212C28.5945 13.4114 28.4347 12.418 28.5225 11.4308C28.6103 10.4436 28.9429 9.49396 29.4902 8.66775C30.0376 7.84155 30.7823 7.1649 31.6571 6.69908C32.5318 6.23326 33.509 5.99298 34.5 5.99999ZM17.3438 47.0947C19.0284 44.226 22.0901 42.3671 25.4758 42.063L25.6129 42.3516C25.9135 42.9997 26.3394 43.582 26.8662 44.0647C27.393 44.5474 28.0102 44.921 28.6821 45.164C29.354 45.4069 30.0674 45.5144 30.7811 45.4802C31.4948 45.446 32.1946 45.2708 32.8402 44.9647L32.8498 44.9604C34.2132 46.8656 35.8173 48.5864 37.6221 50.0801L17.7891 52.0635C16.5367 52.1884 15.2914 52.3856 14.0537 52.6249L17.3438 47.0947ZM9.74269 56.8329C12.4499 55.9315 15.2488 55.3332 18.0879 55.0489L43.5 52.5H59.5005L62.2031 54.5272L44.7876 57.0131C44.683 57.0281 44.5804 57.0541 44.4814 57.0907L16.2319 67.4985H11.4727C10.1731 67.4985 8.91592 67.0359 7.92611 66.1937C6.9363 65.3515 6.2785 64.1846 6.0704 62.9017C5.86231 61.6188 6.11751 60.3038 6.79034 59.1919C7.46317 58.08 8.50971 57.2438 9.74269 56.8329ZM84.15 67.5H81.0658L46.6312 64.4458C46.4232 64.4252 46.2131 64.4508 46.0161 64.5208L37.2525 67.5H24.9062L45.3692 59.9604L64.7934 57.1875L83.85 55.5H84.1342C84.3452 55.4992 84.5561 55.5114 84.7656 55.5366C87.75 55.8647 90 58.4282 90 61.5C90 64.809 87.375 67.5 84.15 67.5Z" fill="#BA7894"/>
<path d="M33.9946 36.6036L35.8754 38.9415C37.5006 37.6372 39.4125 36.7379 41.4536 36.3178L40.8536 33.3793C38.344 33.8952 35.9931 35.0004 33.9946 36.6036Z" fill="#BA7894"/>
<path d="M48.8526 41.3687C47.786 41.8711 46.6269 42.1469 45.4483 42.1787L45.2021 42.1845L45.2725 45.1845L45.5171 45.1787C48.1207 45.1096 50.6246 44.1635 52.6234 42.4937L50.6987 40.1938C50.1365 40.6633 49.516 41.0582 48.8526 41.3687Z" fill="#BA7894"/>
<path d="M40.3183 32.3276L41.1678 29.4506C36.9287 28.2011 32.666 30.2124 31.0327 34.2379L33.813 35.3657C34.8707 32.7583 37.5425 31.5116 40.3183 32.3276Z" fill="#BA7894"/>
<path d="M44.1187 28.0635L46.8749 29.2448C48.013 26.589 50.6776 25.3292 53.3656 26.1729L54.268 23.3136C50.1269 22.002 45.8583 24.0015 44.1187 28.0635Z" fill="#BA7894"/>
<path d="M42.3076 31.6213L45.0236 30.3458L48.9304 38.6649L46.2144 39.9404L42.3076 31.6213Z" fill="#BA7894"/>
<path d="M49.3023 32.8301C50.928 31.5261 52.8401 30.6268 54.8813 30.2062L54.2778 27.2677C51.769 27.784 49.4188 28.8891 47.4209 30.4918L49.3023 32.8301Z" fill="#BA7894"/>
<path d="M29.323 79.6455C28.9876 79.1062 28.548 78.6393 28.03 78.2719C27.512 77.9045 26.9259 77.644 26.3061 77.5058C25.5701 77.3353 24.811 77.2876 24.0595 77.3646C24.0426 77.2678 24.0235 77.1713 23.9999 77.0747C23.8489 76.4645 23.5752 75.8916 23.1953 75.3908C22.8154 74.8901 22.3373 74.4721 21.7903 74.1624C19.5664 72.8745 16.6664 73.5398 15.3274 75.6461C14.9561 76.2291 14.6869 76.871 14.5313 77.5444C13.8592 77.431 13.1707 77.462 12.5115 77.6352C11.8522 77.8083 11.2374 78.1198 10.7078 78.5488L10.6605 78.5863C10.186 78.9647 9.79466 79.4369 9.511 79.9734C9.22735 80.5099 9.05748 81.0992 9.01204 81.7044C8.96748 82.3029 9.04691 82.904 9.24536 83.4703C9.44381 84.0367 9.75701 84.5559 10.1654 84.9956L10.3247 85.1704C10.7778 85.6645 11.3059 86.0841 11.8898 86.4135C11.597 87.0013 11.4393 87.6472 11.4282 88.3039C11.4171 88.9605 11.553 89.6113 11.8259 90.2087C12.3561 91.3205 13.2863 92.1914 14.4306 92.6475C15.5748 93.1035 16.8491 93.1112 17.9987 92.6689C18.6789 92.4061 19.3103 92.0312 19.8666 91.5598C20.321 92.0162 20.8611 92.3783 21.4558 92.6255C22.0505 92.8726 22.6881 92.9999 23.3322 93C23.4462 93 23.5608 92.996 23.676 92.988C24.3053 92.949 24.9202 92.7832 25.4838 92.5008C26.0475 92.2183 26.5483 91.8249 26.9562 91.3442C27.3433 90.8903 27.6347 90.3629 27.813 89.7936C27.9913 89.2243 28.0528 88.6249 27.9938 88.0312C27.9255 87.3344 27.7399 86.6541 27.4448 86.0192C28.0483 85.7334 28.5801 85.3162 29.0013 84.7981C29.4225 84.28 29.7224 83.6741 29.8789 83.025C30.0155 82.453 30.0366 81.8595 29.9412 81.2793C29.8457 80.699 29.6356 80.1436 29.323 79.6455ZM25.6313 80.4291C25.8648 80.4792 26.0861 80.5754 26.282 80.712C26.478 80.8486 26.6448 81.0228 26.7726 81.2246C26.8758 81.3865 26.9457 81.5673 26.9782 81.7565C27.0107 81.9457 27.0051 82.1395 26.9618 82.3266C26.7994 83.0053 26.1347 83.4754 25.3733 83.4953C24.2723 82.6838 22.9526 82.2224 21.5858 82.1709C22.2794 80.8024 23.9488 80.0398 25.6313 80.4291ZM17.8594 77.2553C18.3387 76.5015 19.4503 76.2743 20.2868 76.7586C20.4829 76.8668 20.6548 77.0138 20.7922 77.1907C20.9295 77.3676 21.0294 77.5706 21.0857 77.7874C21.135 77.9889 21.1389 78.1989 21.0972 78.4022C19.97 79.1236 19.1058 80.1896 18.6334 81.4417C18.0571 80.9823 17.6477 80.3461 17.4683 79.6313C17.3684 79.2294 17.3516 78.8115 17.4189 78.4029C17.4861 77.9944 17.636 77.6039 17.8594 77.2553ZM12.0038 81.927C12.0206 81.7296 12.078 81.5377 12.1724 81.3635C12.2667 81.1893 12.3961 81.0364 12.5522 80.9145L12.5997 80.877C12.8895 80.6477 13.242 80.5116 13.6108 80.4866C13.9795 80.4616 14.3472 80.5488 14.6653 80.7369C15.0641 81.9991 15.8468 83.1053 16.9043 83.9014C16.1926 84.263 15.3831 84.3849 14.5964 84.249C13.8097 84.1131 13.0881 83.7267 12.5389 83.1472L12.3794 82.9727C12.2482 82.8336 12.1471 82.6689 12.0825 82.489C12.0179 82.3091 11.9911 82.1178 12.0038 81.927ZM16.9112 89.8738C16.0142 90.2224 14.9376 89.8103 14.5594 88.9738C14.4275 88.6885 14.3941 88.3674 14.4643 88.061C14.5345 87.7546 14.7044 87.4802 14.9474 87.2807C15.042 87.2846 15.1365 87.2876 15.2312 87.2876C16.5525 87.2923 17.8455 86.9058 18.9475 86.1769C19.1015 86.8011 19.0534 87.4581 18.81 88.0532C18.6353 88.4706 18.3765 88.8477 18.0499 89.1609C17.7232 89.4741 17.3356 89.7168 16.9112 89.8738ZM24.6653 89.4073C24.5151 89.581 24.3314 89.7226 24.1252 89.8237C23.9191 89.9247 23.6946 89.9831 23.4653 89.9953C23.0981 90.023 22.731 89.9407 22.4109 89.7588C22.0907 89.577 21.8321 89.3038 21.6679 88.9742C22.1148 87.7599 22.1576 86.4337 21.7898 85.1931C23.4702 85.3944 24.8483 86.6788 25.0075 88.3208C25.0265 88.5156 25.0061 88.7122 24.9473 88.899C24.8885 89.0857 24.7926 89.2586 24.6653 89.4073Z" fill="#BA7894"/>
</svg>
